<svg width="68" height="60" fill="none" xmlns="http://www.w3.org/2000/svg"><g clip-path="url(#a)" fill="#EA4D40"><path d="M41.815 59.775c-14.278 0-25.854-11.68-25.854-26.086 0-14.407 11.575-26.086 25.854-26.086s25.853 11.68 25.853 26.086c0 .844-.041 1.68-.118 2.504a29.4 29.4 0 00.45-5.14C68 15.067 55.157 2.107 39.313 2.107s-28.69 12.96-28.69 28.946C10.622 47.04 23.467 60 39.311 60c1.307 0 2.594-.09 3.854-.261-.448.023-.898.035-1.351.035z"/><path d="M57.92 36.404v-1.45h-7.38v1.45l2.08.525V42.8h-7.652V36.93l2.08-.525v-.003h.034v-1.51l-2.167-.546V19.717l2.167-.546v-1.51h-6.81l-4.798 15.981h-.103l-4.462-15.98h-6.914v1.509l2.166.546v14.628l-2.166.547v1.51h6.5v-1.51l-1.882-.547V19.743l4.59 16.658h3.664l4.74-16.614.04 14.473-1.968.632v.063h-.011v1.449l1.952.525v14.043l-1.952.525v1.45h7.38v-1.45l-2.08-.525v-6.347h7.652v6.347l-2.08.525v1.45h7.38v-1.45l-2.08-.525V36.93l2.08-.525z"/></g><defs><clipPath id="a"><path fill="#fff" d="M0 0H68V60H0z"/></clipPath></defs></svg>