<svg xmlns="http://www.w3.org/2000/svg" version="1.1" xmlns:xlink="http://www.w3.org/1999/xlink" width="59" height="59"><svg width="59" height="59" fill="none" xmlns="http://www.w3.org/2000/svg"><path d="M31.652 58.629c-14.489 0-26.234-11.874-26.234-26.52 0-14.647 11.745-26.521 26.234-26.521 14.489 0 26.233 11.874 26.233 26.52 0 .859-.042 1.708-.12 2.547.3-1.696.458-3.443.458-5.226C58.223 13.176 45.189 0 29.112 0 13.035 0 0 13.176 0 29.429s13.034 29.429 29.11 29.429c1.327 0 2.633-.091 3.911-.265-.454.023-.91.035-1.37.035z" fill="#EA4D40"></path><path d="M47.994 34.869v-1.474h-7.488v1.474l2.11.533v5.97h-7.765v-5.97l2.11-.533v-.003h.036V33.33l-2.2-.556V17.903l2.2-.555v-1.535h-6.91l-4.87 16.248h-.104l-4.528-16.248H13.57v1.535l2.198.555v14.872l-2.198.556v1.535h6.596V33.33l-1.91-.556V17.93l4.658 16.936h3.717l4.809-16.891.041 14.713-1.997.643v.064h-.011v1.474l1.98.533V49.68l-1.98.534v1.473h7.489v-1.473l-2.11-.534v-6.453h7.764v6.453l-2.11.534v1.473h7.488v-1.473l-2.111-.534V35.402l2.111-.533z" fill="#EA4D40"></path></svg><style>@media (prefers-color-scheme: light) { :root { filter: none; } }
@media (prefers-color-scheme: dark) { :root { filter: none; } }
</style></svg>